<?xml version="1.0" standalone="no"?>
<!DOCTYPE svg PUBLIC "-//W3C//DTD SVG 20010904//EN"
 "http://www.w3.org/TR/2001/REC-SVG-20010904/DTD/svg10.dtd">
<svg version="1.0" xmlns="http://www.w3.org/2000/svg"
 width="700.000000pt" height="700.000000pt" viewBox="0 0 700.000000 700.000000"
 preserveAspectRatio="xMidYMid meet">
<metadata>
Created by potrace 1.11, written by Peter Selinger 2001-2013
</metadata>
<g transform="translate(0.000000,700.000000) scale(0.100000,-0.100000)"
fill="#000000" stroke="none">
<path d="M2509 5405 c-96 -29 -142 -49 -207 -92 -224 -149 -342 -429 -293
-692 16 -85 30 -120 146 -366 26 -55 58 -125 72 -155 14 -30 40 -86 58 -125
18 -38 62 -133 98 -210 35 -77 88 -189 116 -249 28 -59 51 -110 51 -111 0 -2
26 -59 59 -127 75 -158 120 -255 186 -398 29 -63 76 -164 105 -225 29 -60 62
-132 75 -160 27 -60 70 -154 135 -290 25 -55 62 -134 80 -175 100 -222 240
-356 445 -426 70 -24 95 -28 205 -28 93 0 140 5 185 18 230 70 395 230 471
454 33 101 43 249 20 342 -8 35 -14 65 -13 67 2 1 15 -23 30 -55 14 -31 71
-153 126 -270 55 -117 120 -241 144 -275 162 -227 454 -333 725 -263 82 22
127 42 202 90 250 162 367 474 285 757 -15 52 -51 136 -126 296 -28 60 -64
136 -80 171 -16 35 -62 134 -103 220 -41 86 -97 207 -125 269 -28 62 -71 154
-95 205 -24 51 -57 122 -74 158 -16 36 -49 106 -72 155 -23 50 -66 142 -95
205 -29 63 -72 156 -95 205 -67 143 -108 231 -175 375 -192 413 -207 440 -293
526 -131 129 -279 194 -457 199 -126 4 -215 -14 -320 -65 -187 -90 -319 -252
-372 -454 -29 -111 -21 -280 17 -381 21 -55 -6 -11 -42 70 -62 137 -117 255
-189 401 -59 123 -78 151 -141 215 -88 90 -138 125 -238 167 -134 55 -301 66
-431 27z"/>
<path d="M1595 2943 c-372 -33 -645 -339 -631 -707 7 -183 70 -330 196 -456
161 -162 362 -229 595 -197 268 36 502 260 561 536 17 84 12 256 -11 331 -65
209 -227 381 -428 454 -79 28 -204 46 -282 39z"/>
</g>
</svg>
